EMG
version=1
nRows=13
nColumns=17
inDegrees=no
endheader
time	EMG01_right_gast_med	EMG02_right_glut_max	EMG03_left_gast_med	EMG04_left_glut_max	EMG05_right_glut_med	EMG06_right_bic_fem	EMG07_right_rect_fem	EMG08_right_vast_lat	EMG09_right_vast_med	EMG10_right_tens_fasc_lat	EMG11_left_glut_med	EMG12_left_bic_fem	EMG13_left_rect_fem	EMG14_left_vast_lat	EMG15_left_vast_med	EMG16_left_tens_fasc_lat
      0.00000000	     32.06358337	    -19.62281418	   -105.96681213	    -70.29972839	    182.97882080	     75.36947632	      3.67740726	     40.59784698	     46.35023880	     43.07743073	      8.53979874	    -33.43818665	     17.35604286	     -1.20295918	     21.37537575	   -103.02084351
      0.01000000	     24.91388130	    -11.00002766	   -101.45471954	    -91.46252441	    164.13470459	    -29.07399368	      1.03481007	     21.23628616	     53.66426468	     42.91608429	     -9.34162140	      2.54375386	     -7.66843510	     -0.05012321	     56.19522095	    -61.61059952
      0.02000000	     19.59594154	    -76.95738220	    -17.95703125	   -108.06735229	    128.46243286	    -67.52912140	      7.10279560	     15.06905365	     36.07069397	     21.99415588	     -9.47079277	    -13.51976490	     16.52760887	     25.35583496	     48.44859695	    -42.20124817
      0.03000000	      8.83508301	   -107.71371460	    143.75062561	   -113.89606476	    105.34413147	    -77.18376923	      5.72493458	      9.58382130	     19.62626266	      5.92755795	    -19.30757904	     -4.18588591	     -2.87554312	     -0.94190794	     -2.78442574	    -25.53122330
      0.04000000	     -3.25025320	    -96.36666107	      6.53870249	    -44.85409546	    137.32173157	     14.79431534	     -4.15510130	      9.32597351	     14.43090153	      3.91023040	     -3.82179666	     12.40088367	      7.27125549	     -0.93023443	    -28.04470253	    -12.15090561
      0.05000000	      5.11812878	    -65.64591217	    157.19631958	      4.51167679	     78.04870605	    184.77145386	     -5.72912788	     14.71907520	     -1.78140187	      6.13871098	      9.40610695	     -5.78065348	     -6.64893246	      1.46584547	    -18.85034180	     -8.51544094
      0.06000000	     -9.22370815	     -6.80781651	    384.49917603	     49.33586884	     19.49034119	    -15.45970821	     -4.29885864	     29.88500977	    -18.88220215	     13.48102570	     15.23764992	    -38.24024963	    -11.12173462	     -2.45136976	     20.63566589	    -26.96800232
      0.07000000	     -5.73119736	      4.73877144	    495.34582520	     45.25636292	    -18.87452888	      7.90273285	     -7.32603979	      6.25122356	     -9.28894997	     12.15452862	     -6.20085001	     -5.35584211	      0.74525499	      4.62890482	     38.46404648	    -44.65760803
      0.08000000	    -11.98143578	     14.18753433	   -304.16165161	     28.39991379	     73.42356873	    -50.81348801	     -5.75879860	    -32.42797852	     -9.36533260	      2.92898488	     31.20641899	    -15.00088310	    -16.59120750	      5.84618759	     63.56929398	      6.24773884
      0.09000000	    -13.39859295	     -1.00748265	     29.57696724	    -16.55193901	     72.91259766	     81.75518036	     -4.83478928	    -14.08543491	    -16.39849854	     -8.86351204	    -12.11676121	    -63.30628967	     14.78193760	    -16.79488945	      6.49683714	     11.78565502
      0.10000000	    -25.12715912	      5.65131378	   -240.14186096	    -41.23093414	    116.87533569	    -36.34812927	     -0.21311933	      1.73744977	    -41.11534119	     -8.67895508	    -28.11347961	     22.20336914	      8.89517975	     22.25753021	      3.77709961	     33.19016266
      0.11000000	    -22.28838539	    -26.66870499	   -758.31359863	    -76.19297028	    207.28192139	    -34.28219604	     12.43103981	    -19.25930595	    -43.39387512	    -34.56348419	     12.38116455	      1.65280211	     14.96421814	      3.27864933	     -9.23226166	     17.40968704
      0.12000000	    -19.14245415	    -92.86309814	   -231.44532776	    -68.67333984	    299.12976074	    -16.14340210	     13.09441948	     -3.30591631	    -44.24570084	    -50.67991638	      5.83867693	     -0.47817737	      7.68473387	     -7.50711536	    -18.69204521	    -14.22837543
